[img]http://img638.imageshack.us/img638/2103/atmposter.jpg[/img]

IMDB Link: 
http://www.imdb.com/title/tt1603257/

Description:
On a late night visit to an ATM, three co-workers end up in a desperate fight for their lives when they become trapped by an unknown man.

MediaInfo:
General
Complete name                            : ATM.2012.HDRiP.AC3-5.1.XviD-SiC.avi
Format                                   : AVI
Format/Info                              : Audio Video Interleave
File size                                : 1.37 GiB
Duration                                 : 1h 30mn
Overall bit rate                         : 2 167 Kbps

Video
ID                                       : 0
Format                                   : MPEG-4 Visual
Format profile                           : Advanced Simple@L5
Format settings, BVOP                    : 2
Format settings, QPel                    : No
Format settings, GMC                     : No warppoints
Format settings, Matrix                  : Default (H.263)
Muxing mode                              : Packed bitstream
Codec ID                                 : XVID
Codec ID/Hint                            : XviD
Duration                                 : 1h 30mn
Bit rate                                 : 1 775 Kbps
Width                                    : 720 pixels
Height                                   : 400 pixels
Display aspect ratio                     : 16:9
Frame rate                               : 23.976 fps
Color space                              : YUV
Chroma subsampling                       : 4:2:0
Bit depth                                : 8 bits
Scan type                                : Progressive
Compression mode                         : Lossy
Bits/(Pixel*Frame)                       : 0.257
Stream size                              : 1.12 GiB (82%)
Writing library                          : XviD 1.1.2 (UTC 2006-11-01)

Audio
ID                                       : 1
Format                                   : AC-3
Format/Info                              : Audio Coding 3
Mode extension                           : CM (complete main)
Codec ID                                 : 2000
Duration                                 : 1h 30mn
Bit rate mode                            : Constant
Bit rate                                 : 384 Kbps
Channel(s)                               : 6 channels
Channel positions                        : Front: L C R, Side: L R, LFE
Sampling rate                            : 48.0 KHz
Bit depth                                : 16 bits
Compression mode                         : Lossy
Stream size                              : 248 MiB (18%)
Alignment                                : Aligned on interleaves
Interleave, duration                     : 64 ms (1.53 video frames)
Interleave, preload duration             : 192 ms
Title                                    : atm

Screenshots:

[img]http://img593.imageshack.us/img593/7518/screencap00002.png[/img]
[img]http://img208.imageshack.us/img208/1460/screencap00006.png[/img]
[img]http://img813.imageshack.us/img813/8418/screencap00021.png[/img]
[img]http://img190.imageshack.us/img190/2952/screencap00029.png[/img]